<svg width="53" height="64" viewBox="0 0 53 64" fill="none" xmlns="http://www.w3.org/2000/svg">
<g clip-path="url(#clip0_12_2)">
<path d="M50.4384 21.8176C50.0672 22.1056 43.5136 25.7984 43.5136 34.0096C43.5136 43.5072 51.8528 46.8672 52.1024 46.9504C52.064 47.1552 50.7776 51.552 47.7056 56.032C44.9664 59.9744 42.1056 63.9104 37.7536 63.9104C33.4016 63.9104 32.2816 61.3824 27.2576 61.3824C22.3616 61.3824 20.6208 63.9936 16.64 63.9936C12.6592 63.9936 9.8816 60.3456 6.688 55.8656C2.9888 50.6048 0 42.432 0 34.6752C0 22.2336 8.0896 15.6352 16.0512 15.6352C20.2816 15.6352 23.808 18.4128 26.464 18.4128C28.992 18.4128 32.9344 15.4688 37.7472 15.4688C39.5712 15.4688 46.1248 15.6352 50.4384 21.8176ZM35.4624 10.2016C37.4528 7.84 38.8608 4.5632 38.8608 1.2864C38.8608 0.832 38.8224 0.3712 38.7392 0C35.5008 0.1216 31.648 2.1568 29.3248 4.8512C27.5008 6.9248 25.7984 10.2016 25.7984 13.5232C25.7984 14.0224 25.8816 14.5216 25.92 14.6816C26.1248 14.72 26.4576 14.7648 26.7904 14.7648C29.696 14.7648 33.3504 12.8192 35.4624 10.2016Z" fill="black"/>
</g>
<defs>
<clipPath id="clip0_12_2">
<rect width="52.096" height="64" fill="white"/>
</clipPath>
</defs>
</svg>
